<svg width="1183" height="591" viewBox="0 0 1183 591" fill="none" xmlns="http://www.w3.org/2000/svg">
<path d="M1173.39 1136.53L-66.192 1251.31L-595.608 240.832C-409.931 147.288 -5.54504 4.59121 126.579 182.155C291.735 404.109 495.16 191.707 678.451 323.991C861.743 456.274 744.739 793.679 981.77 875.063C1171.4 940.17 1188.53 1076.5 1173.39 1136.53Z" fill="#AEC5EF" fill-opacity="0.2"/>
<path d="M1082.3 1136.42L-72.2015 1149.42L-485.702 175.92C-307.035 103.42 77.4985 1.91968 186.298 175.92C322.298 393.42 526.298 212.42 685.798 348.42C845.298 484.42 711.798 787.42 924.798 880.42C1095.2 954.82 1100.8 1082.09 1082.3 1136.42Z" fill="url(#paint0_linear_426_166)"/>
<defs>
<linearGradient id="paint0_linear_426_166" x1="301.913" y1="1149.42" x2="301.913" y2="79.8453" gradientUnits="userSpaceOnUse">
<stop stop-color="#AEC5EF"/>
<stop offset="1" stop-color="#9BB8FA"/>
</linearGradient>
</defs>
</svg>
