<svg width="649" height="592" viewBox="0 0 649 592" fill="none" xmlns="http://www.w3.org/2000/svg">
<g clip-path="url(#clip0_25_6)">
<path d="M394.588 251.619C394.588 251.619 362.227 316.293 329.352 360.933C316.271 378.704 303.112 393.294 291.877 399.381C280.882 405.338 271.573 414.576 263.87 424.843C243.927 451.393 234.716 484.631 234.716 484.631L150.654 357.591C150.654 357.591 153.523 233.41 163.616 212.638C178.326 182.364 185.431 121.202 191.083 109.027C195.278 99.9947 207.25 53.335 208.396 49.9045C208.896 48.429 212.878 46.1634 218.053 46.1668C222.203 46.1668 229.254 50.1747 231.029 58.4133C240.02 100.045 229.2 127.51 229.339 128.729C232.509 160.728 222.977 184.481 229.677 190.772C229.923 191.001 230.387 190.893 231.029 190.475C242.619 183.046 314.544 78.2941 323.403 76.0318C332.739 73.648 394.588 251.619 394.588 251.619Z" fill="#FFB27D"/>
<path d="M260.006 459.49C260.006 459.49 258.86 515.941 255.582 591.976H43.5625C92.0126 488.73 134.149 401.833 134.149 401.833C134.149 401.833 254.882 405.517 260.006 459.49Z" fill="#FFA014"/>
<path d="M468.101 32.7418L442.075 70.8624L416.531 108.274C414.973 110.151 413.172 110.803 411.221 110.617C405.09 110.036 397.508 101.203 391.596 96.3143L390.998 95.8214C387.252 92.7089 384.891 88.2418 384.432 83.3961C383.973 78.5504 385.453 73.7201 388.548 69.9608L427.591 22.8149L439.171 8.83284C442.288 5.09191 446.76 2.73504 451.611 2.277C456.461 1.81897 461.296 3.297 465.059 6.38826L465.661 6.88123C469.404 9.9961 471.762 14.4638 472.219 19.3089C472.676 24.154 471.196 28.983 468.101 32.7418Z" fill="#FFB27D"/>
<path d="M442.051 70.8624L416.508 108.274C414.949 110.151 413.148 110.803 411.198 110.617L427.567 22.8285C427.604 23.308 430.386 62.7015 442.051 70.8624Z" fill="#EFA26F"/>
<path d="M329.352 360.933C316.271 378.704 303.113 393.294 291.877 399.381C280.882 405.338 271.573 414.576 263.87 424.843C255.011 420.717 244.911 415.879 235.041 411.084C223.021 405.25 222.558 388.198 234.335 381.881C234.45 381.82 234.561 381.756 234.673 381.692C245.705 375.388 257.008 353.12 257.008 353.12L329.352 360.933Z" fill="#EFA26F"/>
<path d="M207.811 51.8359L201 79.307C201 79.307 206.956 81.7381 210.779 79.8507C214.602 77.9632 217.721 53.3148 207.811 51.8359Z" fill="#FFC197"/>
<path d="M403.687 0H257.225C242.759 0 231.032 11.7142 231.032 26.1644V347.751C231.032 362.202 242.759 373.916 257.225 373.916H403.687C418.153 373.916 429.879 362.202 429.879 347.751V26.1644C429.879 11.7142 418.153 0 403.687 0Z" fill="#2B478B"/>
<path d="M420.023 28.6393V342.771C420.023 353.427 411.356 362.145 400.756 362.145H260.138C249.552 362.145 240.872 353.427 240.872 342.771V28.6393C240.872 17.9831 249.535 9.26501 260.138 9.26501H400.77C411.356 9.26501 420.023 17.9966 420.023 28.6393Z" fill="#C0D8FB"/>
<path d="M400.77 9.26501L261.879 362.145H260.138C249.552 362.145 240.872 353.427 240.872 342.771V28.6393C240.872 17.9831 249.535 9.26501 260.138 9.26501H400.77Z" fill="#CBE1FD"/>
<path d="M359.847 2.19141H301.067C296.261 2.19141 292.364 6.08405 292.364 10.8859V12.2567C292.364 17.0585 296.261 20.9512 301.067 20.9512H359.847C364.654 20.9512 368.551 17.0585 368.551 12.2567V10.8859C368.551 6.08405 364.654 2.19141 359.847 2.19141Z" fill="#2B478B"/>
<path d="M455.125 176.692L451.245 178.164L425.14 188.074C424.535 188.306 423.916 188.502 423.288 188.661C419.05 189.747 414.56 189.239 410.673 187.233C406.786 185.227 403.773 181.863 402.206 177.782L401.824 176.769C400.164 172.365 400.315 167.484 402.245 163.19C404.176 158.897 407.728 155.542 412.127 153.857L436.464 144.622L438.231 143.947L442.115 142.471C446.528 140.809 451.42 140.962 455.721 142.896C460.021 144.83 463.379 148.388 465.059 152.79L465.445 153.802C467.097 158.206 466.94 163.083 465.006 167.371C463.073 171.659 459.521 175.01 455.125 176.692Z" fill="#FFB27D"/>
<path d="M433.925 177.3C429.572 178.951 421.683 181.875 417.464 182.482C416.271 182.651 414.084 182.003 412.019 179.761C410.789 178.41 409.612 176.499 408.737 173.845C408.312 172.621 408.013 171.356 407.845 170.07C407.68 168.574 407.728 167.062 407.99 165.58C408.123 164.888 408.418 164.237 408.85 163.68C409.282 163.123 409.84 162.676 410.478 162.375C410.478 162.375 410.478 162.375 410.498 162.375C414.983 160.238 421.03 157.628 426.33 156.176C429.994 155.163 433.702 156.781 434.862 159.985L435.409 161.481L438.211 169.145C439.371 172.319 437.485 175.959 433.925 177.3Z" fill="#FFD3B6"/>
<path d="M433.925 177.299C429.572 178.951 421.682 181.875 417.464 182.482C416.271 182.651 414.084 182.003 412.019 179.761C411.802 179.248 411.6 178.711 411.41 178.134C410.982 176.91 410.683 175.645 410.518 174.359C410.354 172.862 410.402 171.351 410.66 169.868C410.795 169.176 411.09 168.526 411.523 167.97C411.956 167.414 412.514 166.968 413.151 166.667C413.151 166.667 413.151 166.667 413.171 166.667C417.657 164.526 423.7 161.92 429.004 160.464C430.082 160.141 431.219 160.063 432.331 160.239C433.442 160.414 434.5 160.837 435.426 161.477L438.228 169.142C439.37 172.319 437.484 175.959 433.925 177.299Z" fill="#FFC197"/>
<path d="M443.281 213.364L423.146 218.837C420.197 219.63 417.054 219.225 414.403 217.71C411.752 216.196 409.808 213.695 408.997 210.754L408.375 208.478C407.583 205.529 407.992 202.387 409.512 199.738C411.032 197.089 413.54 195.148 416.487 194.341L436.619 188.867C439.571 188.075 442.717 188.483 445.368 190.002C448.02 191.52 449.961 194.026 450.768 196.971L451.387 199.247C452.175 202.192 451.765 205.329 450.247 207.974C448.728 210.619 446.224 212.556 443.281 213.364Z" fill="#FFB27D"/>
<path d="M432.394 212.378C428.696 213.364 422.014 215.103 418.509 215.295C417.234 215.366 414.682 214.282 413.019 210.943C412.147 209.128 411.644 207.159 411.539 205.149C411.514 203.986 411.666 202.826 411.989 201.708C412.16 201.174 412.455 200.687 412.851 200.288C413.246 199.889 413.73 199.589 414.263 199.412H414.284C418.12 198.061 423.271 196.444 427.73 195.664C430.806 195.127 433.726 196.606 434.446 199.142L434.966 200.952L436.518 206.391C437.234 208.897 435.416 211.574 432.394 212.378Z" fill="#FFD3B6"/>
<path d="M432.394 212.378C428.696 213.364 422.014 215.103 418.509 215.295C417.234 215.366 414.682 214.282 413.019 210.943C412.782 210.035 412.645 209.105 412.61 208.167C412.586 207.004 412.738 205.844 413.06 204.727C413.232 204.192 413.528 203.704 413.924 203.305C414.32 202.905 414.804 202.605 415.338 202.427C419.175 201.077 424.329 199.456 428.784 198.683C431.333 198.237 433.777 199.176 434.95 200.948L436.501 206.388C437.234 208.897 435.416 211.574 432.394 212.378Z" fill="#FFC197"/>
<path d="M113.51 444.664C113.51 444.664 154.943 484.307 182.876 499.613L204.025 484.628V506.734C204.025 506.734 245.6 514.081 258.735 506.734V446.453L141.923 387.952L113.51 444.664Z" fill="#ED7D2B"/>
<path d="M267.561 501.936C251.468 505.234 216.785 492.606 216.785 492.606L222.369 438.63L183.16 483.466C163.218 476.038 132.019 456.704 113.486 444.663C104.259 438.667 98.1678 434.483 98.1678 434.483C124.323 392.439 150.63 353.11 150.63 353.11C158.354 368.544 176.63 381.942 196.444 392.662C229.369 410.477 266.533 420.883 266.533 420.883C266.543 452.97 267.561 501.936 267.561 501.936Z" fill="#DCEAFF"/>
<path d="M454.49 138.163L454.057 138.311L427.665 145.064C416.061 148.046 404.059 141.772 400.996 131.129L399.428 125.707C396.484 115.486 402.808 104.799 413.594 101.335L422.308 99.1L439.986 94.5653C451.589 91.5873 463.589 97.8608 466.651 108.503L468.223 113.957C471.123 124.018 465.005 134.55 454.49 138.163Z" fill="#FFB27D"/>
<path d="M442.413 130.802L429.568 136.576H429.487C428.977 136.718 428.459 136.83 427.936 136.913C427.723 136.947 427.503 136.971 427.287 136.994C427.197 137.003 427.106 137.003 427.016 136.994C426.682 136.983 426.355 136.889 426.066 136.721C425.776 136.553 425.533 136.316 425.358 136.031C425.182 135.746 425.08 135.422 425.06 135.088C425.041 134.755 425.104 134.421 425.245 134.118C426.502 131.398 426.759 128.323 425.972 125.433L425.664 124.316C425.667 124.305 425.667 124.293 425.664 124.282L424.67 120.642C423.913 117.846 422.286 115.363 420.023 113.551C419.759 113.339 419.489 113.136 419.212 112.947C416.677 111.191 417.322 107.207 420.29 106.397L420.371 106.373L434.442 104.246C437.92 103.304 441.27 105.978 442.217 109.452L443.345 113.595L445.752 122.428C446.699 125.926 445.874 129.86 442.413 130.802Z" fill="#FFD3B6"/>
<path d="M442.412 130.802L429.568 136.576H429.487C429.186 136.633 428.246 136.792 427.016 136.981C426.681 136.969 426.355 136.875 426.065 136.707C425.776 136.539 425.533 136.302 425.357 136.017C425.182 135.732 425.08 135.409 425.06 135.075C425.041 134.741 425.104 134.407 425.245 134.104C426.502 131.385 426.759 128.31 425.972 125.42L425.664 124.302C425.667 124.291 425.667 124.279 425.664 124.268L424.67 120.642C423.913 117.846 422.285 115.363 420.023 113.551C420.505 112.846 421.225 112.337 422.051 112.116L422.132 112.093L436.203 109.969C439.134 109.172 441.966 110.945 443.359 113.595L445.765 122.428C446.698 125.926 445.874 129.86 442.412 130.802Z" fill="#FFC197"/>
<path d="M231.029 275.285C231.029 275.285 225.283 225.08 219.962 215.292C214.642 205.503 210.16 185.893 218.326 171.327C226.493 156.76 229.322 128.746 229.322 128.746C232.492 160.745 222.96 184.498 229.66 190.789C229.907 191.018 230.37 190.91 231.012 190.492L231.029 275.285Z" fill="#EFA26F"/>
<path d="M359.631 88.4167H159.675C152.735 88.4167 147.108 94.0373 147.108 100.971V180.97C147.108 187.903 152.735 193.524 159.675 193.524H359.631C366.572 193.524 372.198 187.903 372.198 180.97V100.971C372.198 94.0373 366.572 88.4167 359.631 88.4167Z" fill="#699DEE"/>
<path d="M361.03 39.272H282.764C276.959 39.272 272.252 43.9734 272.252 49.7729V64.6024C272.252 70.4019 276.959 75.1033 282.764 75.1033H361.03C366.836 75.1033 371.542 70.4019 371.542 64.6024V49.7729C371.542 43.9734 366.836 39.272 361.03 39.272Z" fill="#9ABFF6"/>
<path d="M357.6 293.613H267.372C260.418 293.613 254.781 299.244 254.781 306.19V325.24C254.781 332.187 260.418 337.818 267.372 337.818H357.6C364.553 337.818 370.19 332.187 370.19 325.24V306.19C370.19 299.244 364.553 293.613 357.6 293.613Z" fill="#9ABFF6"/>
<path d="M307.425 211.841H392.668C396.666 211.842 400.501 213.428 403.329 216.252C406.157 219.076 407.747 222.906 407.75 226.9V260.226C407.75 264.222 406.161 268.055 403.333 270.88C400.504 273.706 396.668 275.294 392.668 275.295H307.425C305.445 275.295 303.483 274.906 301.653 274.148C299.823 273.391 298.16 272.281 296.76 270.881C295.359 269.482 294.248 267.821 293.491 265.993C292.733 264.164 292.343 262.205 292.344 260.226V226.9C292.345 222.906 293.935 219.075 296.763 216.251C299.592 213.427 303.427 211.841 307.425 211.841Z" fill="#FFA014"/>
<path d="M633.661 592H478.157C470.7 587.006 431.975 560.619 415.963 540.948C412.583 536.778 400.148 500.852 390.613 471.682C384.654 453.449 379.796 437.87 378.995 434.294C378.711 433.048 378.522 430.58 378.407 427.238V427.204C378.002 415.275 378.556 392.271 379.127 373.997V373.913V373.673C379.154 372.869 379.178 372.079 379.205 371.309V371.282C379.205 371.205 379.205 371.124 379.205 371.046C379.31 367.872 379.411 364.88 379.506 362.159C379.746 355.359 379.949 350.243 380.033 348.241L380.067 347.309C380.314 347.171 387.794 343.183 397.792 350.378C400.205 352.117 402.436 356.318 404.471 361.798C405.772 365.296 406.993 369.314 408.128 373.548C412.495 389.833 415.629 409.302 417.302 414.515C420.006 422.956 451.779 459.986 453.78 462.289C453.81 462.329 453.844 462.367 453.874 462.404V403.882L429.876 339.729L420.023 313.392L415.071 300.157C409.829 291.319 405.164 282.153 401.105 272.716C398.316 266.159 395.761 259.119 394.179 252.426C393.8 250.833 393.479 249.256 393.222 247.699C392.286 242.044 392.208 236.797 393.523 232.525C395.845 224.918 401.077 223.487 405.096 223.642C405.512 223.642 405.914 223.693 406.303 223.736C406.693 223.783 407.08 223.857 407.459 223.959C408.159 224.145 408.831 224.425 409.457 224.79C410.497 225.399 411.389 226.232 412.066 227.228C412.066 227.228 415.446 231.654 420.013 237.604C423.007 241.52 426.506 246.096 429.866 250.505C435.848 258.362 441.405 265.699 442.933 267.84C451.191 279.452 473.425 317.292 473.425 317.292L499.451 318.383C503.574 318.555 507.499 320.196 510.515 323.009C519.769 331.642 539.722 350.324 542.169 353.103C542.169 354.015 557.673 361.463 569.652 368.095C578.221 371.711 594.496 384.528 594.496 384.528C597.876 387.503 600.438 390.464 601.74 393.307C607.32 405.439 622.456 510.951 629.693 563.111C632.035 579.878 633.543 591.132 633.661 592Z" fill="#FFB27D"/>
<path d="M473.435 317.306C473.435 317.306 497.545 356.621 500.736 358.391C503.927 360.16 516.338 362.642 517.758 358.391C519.178 354.14 473.435 317.306 473.435 317.306Z" fill="#EFA26F"/>
<path d="M594.628 384.65L594.506 384.542C594.506 384.542 578.231 371.711 569.663 368.108C558.664 362.031 544.697 355.244 542.483 353.468C545.035 356.385 562.99 376.685 569.903 378.204C575.97 379.541 589.751 383.306 594.628 384.65Z" fill="#EFA26F"/>
<path d="M453.878 462.387V403.882C453.878 403.882 467.79 427.129 468.855 439.882C469.92 452.635 463.075 473.272 453.878 462.387Z" fill="#EFA26F"/>
<path d="M403.396 247.696C401.368 244.211 397.718 237.904 396.464 234.359C396.126 233.346 396.156 231.36 397.386 229.23C398.295 227.704 399.545 226.409 401.037 225.445C401.832 224.882 402.692 224.419 403.599 224.064C404.65 223.681 405.759 223.477 406.878 223.459C407.442 223.484 407.991 223.645 408.479 223.928C408.968 224.212 409.379 224.609 409.68 225.087C412.093 228.602 415.149 233.386 417.228 237.718C418.664 240.71 418.211 244.164 416.115 245.68L415.135 246.396L410.126 250.049C408.054 251.579 405.052 250.546 403.396 247.696Z" fill="#FFD3B6"/>
<path d="M403.396 247.696C401.368 244.211 397.718 237.904 396.464 234.359C396.126 233.346 396.156 231.361 397.386 229.23C398.48 228.332 399.7 227.601 401.007 227.059C402.058 226.676 403.166 226.472 404.285 226.454C404.849 226.479 405.399 226.639 405.887 226.923C406.375 227.206 406.787 227.604 407.087 228.082C409.504 231.597 412.56 236.381 414.635 240.71C415.558 242.628 415.703 244.731 415.135 246.393L410.126 250.046C408.054 251.579 405.052 250.546 403.396 247.696Z" fill="#FFC197"/>
<path d="M539.195 39.7683H506.597C497.986 39.7683 491.005 46.7418 491.005 55.3441V82.1669C491.005 90.7692 497.986 97.7427 506.597 97.7427H539.195C547.806 97.7427 554.787 90.7692 554.787 82.1669V55.3441C554.787 46.7418 547.806 39.7683 539.195 39.7683Z" fill="#DFEBFD"/>
<path d="M14.9838 248.726H112.638C116.388 248.737 119.982 250.229 122.635 252.878C125.287 255.527 126.782 259.117 126.794 262.863V305.674C126.784 309.115 125.411 312.412 122.975 314.845C120.539 317.279 117.239 318.65 113.794 318.66H111.282L115.988 338.513L86.449 318.66H14.1557C10.4099 318.645 6.82154 317.153 4.17253 314.507C1.52351 311.862 0.0285623 308.278 0.0134277 304.536V263.694C0.0250014 259.73 1.60552 255.932 4.41013 253.127C7.21473 250.323 11.0158 248.741 14.9838 248.726Z" fill="#DFEBFD"/>
<path d="M12.3643 279.789H114.206C114.874 279.787 115.514 279.52 115.986 279.049C116.459 278.577 116.725 277.938 116.728 277.271C116.725 276.603 116.459 275.964 115.986 275.492C115.514 275.021 114.874 274.754 114.206 274.752H12.3643C11.6961 274.753 11.0558 275.019 10.5833 275.491C10.1108 275.963 9.84456 276.603 9.84277 277.271C9.84456 277.938 10.1108 278.578 10.5833 279.05C11.0558 279.522 11.6961 279.788 12.3643 279.789Z" fill="#CBE1FD"/>
<path d="M12.3643 291.064H114.206C114.875 291.062 115.515 290.796 115.987 290.324C116.46 289.852 116.726 289.212 116.728 288.545C116.725 287.877 116.459 287.238 115.986 286.767C115.514 286.295 114.874 286.029 114.206 286.026H12.3643C11.6961 286.028 11.0558 286.294 10.5833 286.766C10.1108 287.238 9.84456 287.877 9.84277 288.545C9.84367 289.212 10.1096 289.853 10.5823 290.325C11.055 290.797 11.6958 291.063 12.3643 291.064Z" fill="#CBE1FD"/>
<path d="M12.3643 302.341H114.206C114.874 302.338 115.514 302.072 115.986 301.6C116.459 301.128 116.725 300.489 116.728 299.822C116.726 299.155 116.46 298.515 115.987 298.043C115.515 297.571 114.875 297.305 114.206 297.303H12.3643C11.6958 297.304 11.055 297.57 10.5823 298.042C10.1096 298.514 9.84367 299.154 9.84277 299.822C9.84456 300.49 10.1108 301.129 10.5833 301.601C11.0558 302.073 11.6961 302.339 12.3643 302.341Z" fill="#CBE1FD"/>
<path d="M67.8382 262.276H111.066C111.862 262.274 112.624 261.957 113.187 261.395C113.749 260.833 114.066 260.072 114.068 259.277C114.065 258.483 113.748 257.722 113.186 257.16C112.623 256.598 111.861 256.282 111.066 256.279H67.8382C67.043 256.282 66.2811 256.598 65.7187 257.16C65.1564 257.722 64.8393 258.483 64.8367 259.277C64.8385 260.072 65.1553 260.833 65.7178 261.395C66.2803 261.957 67.0427 262.274 67.8382 262.276Z" fill="#CBE1FD"/>
<path d="M30.6946 262.279H56.7043C58.0148 262.279 59.0771 261.218 59.0771 259.909V258.653C59.0771 257.344 58.0148 256.282 56.7043 256.282H30.6946C29.3841 256.282 28.3218 257.344 28.3218 258.653V259.909C28.3218 261.218 29.3841 262.279 30.6946 262.279Z" fill="#CBE1FD"/>
<path d="M505.671 270.433L567.09 290.493L530.298 254.672L526.563 263.424L510.755 263.498L505.671 270.433Z" fill="#9EC3F6"/>
<path d="M567.09 290.493L519.421 254.267L468.49 242.645L567.09 290.493Z" fill="white"/>
<path d="M530.298 254.672L567.09 290.493L542.568 240.308L530.298 254.672Z" fill="white"/>
<path d="M143.478 41.8551L86.0671 50.0363L124.167 24.0947L126.104 32.411L140.064 34.9366L143.478 41.8551Z" fill="#9EC3F6"/>
<path d="M86.0671 50.0362L133.845 25.4284L180.669 23.075L86.0671 50.0362Z" fill="white"/>
<path d="M124.167 24.0947L86.0671 50.0363L115.562 9.49475L124.167 24.0947Z" fill="white"/>
<path d="M233.615 137.001C233.63 144.191 231.252 151.183 226.854 156.875C225.446 158.7 223.848 160.372 222.089 161.862C216.419 166.659 209.28 169.378 201.852 169.57C194.425 169.761 187.155 167.414 181.245 162.916C175.335 158.418 171.139 152.039 169.353 144.835C167.566 137.631 168.296 130.033 171.42 123.299C174.545 116.566 179.877 111.099 186.535 107.805C193.193 104.511 200.778 103.587 208.033 105.185C215.289 106.783 221.781 110.808 226.434 116.594C231.088 122.38 233.625 129.579 233.625 137.001H233.615Z" fill="white"/>
<path d="M214.105 152.401L213.851 152.128C213.476 151.841 213.101 151.662 211.593 151.402C210.826 151.273 209.761 151.122 208.25 150.926C208.25 150.926 207.912 150.889 207.754 150.875L207.375 150.841C206.942 150.615 206.831 148.815 206.834 146.931C206.834 146.79 206.834 146.648 206.834 146.506C206.834 145.79 206.865 145.084 206.892 144.45C206.892 144.409 206.892 144.372 206.892 144.331C207.825 144.409 208.443 144.402 208.443 144.402C210.18 144.264 211.265 139.611 211.654 135.85C212.188 134.479 212.478 133.025 212.513 131.555C212.57 130.265 212.176 128.996 211.397 127.966C211.056 127.534 210.644 127.163 210.177 126.872C210.069 126.764 209.957 126.666 209.839 126.571C208.223 124.778 201.652 118.059 197.333 121.945C197.221 121.557 195.818 117.195 189.018 118.623C189.44 118.579 192.455 118.285 193.327 119.514C193.209 119.464 190.576 118.295 188.933 119.315C188.166 119.781 187.689 120.75 187.419 121.77V121.79C187.419 121.79 187.419 121.79 187.419 121.807C187.417 121.817 187.417 121.827 187.419 121.837C187.389 121.976 187.355 122.114 187.324 122.253C187.324 122.273 187.324 122.293 187.324 122.317C187.324 122.34 187.324 122.317 187.324 122.317C187.14 123.162 187.112 124.034 187.243 124.89C187.497 125.953 189.373 129.12 190.623 129.12C191.114 129.103 191.597 128.988 192.043 128.783C191.837 129.386 191.667 130.002 191.536 130.626C190.18 136.849 194.314 141.576 196.451 140.401C197.823 139.655 198.861 142.052 198.861 142.052C198.658 146.594 197.41 149.558 196.494 150.298C196.156 150.335 195.447 150.423 194.551 150.564C194.551 150.564 191.397 150.902 188.997 151.952L188.94 151.976C188.457 152.166 188.002 152.42 187.588 152.732C187.418 152.86 187.27 153.014 187.149 153.188C187.094 153.251 187.046 153.32 187.007 153.394C186.205 154.92 185.398 157.213 184.641 159.9C189.649 163.616 195.767 165.532 202.002 165.336C208.238 165.141 214.224 162.846 218.989 158.823C217.228 155.136 215.207 153.235 214.105 152.401Z" fill="#2B478B"/>
<path d="M292.999 114.811H255.95C254.66 114.811 253.615 115.855 253.615 117.144V118.258C253.615 119.547 254.66 120.591 255.95 120.591H292.999C294.289 120.591 295.335 119.547 295.335 118.258V117.144C295.335 115.855 294.289 114.811 292.999 114.811Z" fill="white"/>
<path d="M293.445 141.363H255.494C254.994 141.361 254.516 141.161 254.163 140.809C253.81 140.456 253.61 139.978 253.608 139.479C253.609 138.98 253.809 138.502 254.162 138.149C254.515 137.796 254.994 137.597 255.494 137.595H293.442C293.942 137.597 294.42 137.796 294.774 138.149C295.127 138.502 295.326 138.98 295.328 139.479C295.326 139.978 295.127 140.456 294.775 140.808C294.422 141.161 293.944 141.361 293.445 141.363Z" fill="white"/>
<path d="M276.65 146.513H255.058C254.261 146.513 253.615 147.158 253.615 147.954V148.839C253.615 149.635 254.261 150.281 255.058 150.281H276.65C277.447 150.281 278.093 149.635 278.093 148.839V147.954C278.093 147.158 277.447 146.513 276.65 146.513Z" fill="white"/>
<path d="M320.652 146.513H285.762C284.762 146.513 283.951 147.323 283.951 148.323V148.471C283.951 149.471 284.762 150.281 285.762 150.281H320.652C321.652 150.281 322.463 149.471 322.463 148.471V148.323C322.463 147.323 321.652 146.513 320.652 146.513Z" fill="white"/>
<path d="M353.246 141.363H303.491C302.991 141.362 302.513 141.163 302.159 140.81C301.806 140.457 301.607 139.979 301.605 139.479C301.607 138.98 301.806 138.502 302.159 138.149C302.513 137.796 302.991 137.597 303.491 137.595H353.246C353.746 137.597 354.224 137.796 354.578 138.149C354.931 138.502 355.13 138.98 355.132 139.479C355.129 139.978 354.93 140.456 354.577 140.809C354.223 141.161 353.745 141.361 353.246 141.363Z" fill="white"/>
<path d="M293.445 159.195H255.494C254.994 159.193 254.515 158.994 254.162 158.641C253.809 158.288 253.609 157.81 253.608 157.311C253.608 156.81 253.806 156.331 254.16 155.976C254.513 155.622 254.993 155.422 255.494 155.42H293.442C293.942 155.422 294.42 155.621 294.774 155.974C295.127 156.327 295.326 156.805 295.328 157.304C295.328 157.804 295.13 158.283 294.777 158.637C294.424 158.992 293.946 159.192 293.445 159.195Z" fill="white"/>
<path d="M353.246 159.195H303.491C302.991 159.193 302.513 158.994 302.159 158.641C301.806 158.288 301.607 157.81 301.605 157.311C301.605 156.81 301.803 156.331 302.157 155.976C302.51 155.622 302.99 155.422 303.491 155.42H353.246C353.746 155.422 354.224 155.621 354.578 155.974C354.931 156.327 355.13 156.805 355.132 157.304C355.132 157.804 354.933 158.284 354.58 158.639C354.226 158.993 353.747 159.193 353.246 159.195Z" fill="white"/>
<path d="M329.112 114.811H302.504C301.399 114.811 300.503 115.706 300.503 116.81V118.592C300.503 119.696 301.399 120.591 302.504 120.591H329.112C330.217 120.591 331.113 119.696 331.113 118.592V116.81C331.113 115.706 330.217 114.811 329.112 114.811Z" fill="white"/>
<path d="M295.561 302.064H269.22C268.304 302.064 267.561 302.806 267.561 303.722V304.515C267.561 305.431 268.304 306.173 269.22 306.173H295.561C296.478 306.173 297.221 305.431 297.221 304.515V303.722C297.221 302.806 296.478 302.064 295.561 302.064Z" fill="#699DEE"/>
<path d="M295.879 316.688H268.899C268.541 316.688 268.197 316.545 267.943 316.292C267.69 316.039 267.547 315.695 267.547 315.337C267.547 314.979 267.69 314.635 267.943 314.382C268.197 314.129 268.541 313.987 268.899 313.987H295.879C296.238 313.987 296.582 314.129 296.835 314.382C297.089 314.635 297.231 314.979 297.231 315.337C297.231 315.695 297.089 316.039 296.835 316.292C296.582 316.545 296.238 316.688 295.879 316.688Z" fill="#699DEE"/>
<path d="M283.937 320.351H268.588C268.021 320.351 267.561 320.811 267.561 321.378V322.002C267.561 322.569 268.021 323.029 268.588 323.029H283.937C284.505 323.029 284.965 322.569 284.965 322.002V321.378C284.965 320.811 284.505 320.351 283.937 320.351Z" fill="#699DEE"/>
<path d="M315.22 320.351H290.417C289.706 320.351 289.129 320.927 289.129 321.638V321.742C289.129 322.453 289.706 323.029 290.417 323.029H315.22C315.931 323.029 316.508 322.453 316.508 321.742V321.638C316.508 320.927 315.931 320.351 315.22 320.351Z" fill="#699DEE"/>
<path d="M338.394 316.688H303.018C302.659 316.688 302.315 316.545 302.062 316.292C301.808 316.039 301.666 315.695 301.666 315.337C301.666 314.979 301.808 314.635 302.062 314.382C302.315 314.129 302.659 313.987 303.018 313.987H338.394C338.752 313.987 339.096 314.129 339.35 314.382C339.603 314.635 339.746 314.979 339.746 315.337C339.746 315.695 339.603 316.039 339.35 316.292C339.096 316.545 338.752 316.688 338.394 316.688Z" fill="#699DEE"/>
<path d="M295.879 329.366H268.899C268.541 329.366 268.197 329.224 267.943 328.971C267.69 328.718 267.547 328.374 267.547 328.016C267.547 327.658 267.69 327.314 267.943 327.061C268.197 326.808 268.541 326.665 268.899 326.665H295.879C296.238 326.665 296.582 326.808 296.835 327.061C297.089 327.314 297.231 327.658 297.231 328.016C297.231 328.374 297.089 328.718 296.835 328.971C296.582 329.224 296.238 329.366 295.879 329.366Z" fill="#699DEE"/>
<path d="M338.394 329.366H303.018C302.659 329.366 302.315 329.224 302.062 328.971C301.808 328.718 301.666 328.374 301.666 328.016C301.666 327.658 301.808 327.314 302.062 327.061C302.315 326.808 302.659 326.665 303.018 326.665H338.394C338.752 326.665 339.096 326.808 339.35 327.061C339.603 327.314 339.746 327.658 339.746 328.016C339.746 328.374 339.603 328.718 339.35 328.971C339.096 329.224 338.752 329.366 338.394 329.366Z" fill="#699DEE"/>
<path d="M321.233 302.064H302.318C301.532 302.064 300.895 302.701 300.895 303.486V304.752C300.895 305.537 301.532 306.173 302.318 306.173H321.233C322.019 306.173 322.656 305.537 322.656 304.752V303.486C322.656 302.701 322.019 302.064 321.233 302.064Z" fill="#699DEE"/>
<path d="M313.036 46.1836H286.695C285.779 46.1836 285.036 46.9258 285.036 47.8415V48.6349C285.036 49.5505 285.779 50.2928 286.695 50.2928H313.036C313.953 50.2928 314.696 49.5505 314.696 48.6349V47.8415C314.696 46.9258 313.953 46.1836 313.036 46.1836Z" fill="#699DEE"/>
<path d="M313.354 60.8107H286.374C286.016 60.8107 285.672 60.6684 285.418 60.4151C285.165 60.1618 285.022 59.8183 285.022 59.4601C285.022 59.1019 285.165 58.7584 285.418 58.5051C285.672 58.2518 286.016 58.1095 286.374 58.1095H313.354C313.713 58.1095 314.057 58.2518 314.31 58.5051C314.564 58.7584 314.706 59.1019 314.706 59.4601C314.706 59.8183 314.564 60.1618 314.31 60.4151C314.057 60.6684 313.713 60.8107 313.354 60.8107Z" fill="#699DEE"/>
<path d="M301.412 64.4707H286.063C285.496 64.4707 285.036 64.9303 285.036 65.4971V66.1218C285.036 66.6887 285.496 67.1482 286.063 67.1482H301.412C301.98 67.1482 302.44 66.6887 302.44 66.1218V65.4971C302.44 64.9303 301.98 64.4707 301.412 64.4707Z" fill="#699DEE"/>
<path d="M332.695 64.4707H307.892C307.181 64.4707 306.604 65.0467 306.604 65.7571V65.8618C306.604 66.5723 307.181 67.1482 307.892 67.1482H332.695C333.406 67.1482 333.983 66.5723 333.983 65.8618V65.7571C333.983 65.0467 333.406 64.4707 332.695 64.4707Z" fill="#699DEE"/>
<path d="M355.882 60.8107H320.493C320.134 60.8107 319.79 60.6684 319.537 60.4151C319.283 60.1618 319.141 59.8183 319.141 59.4601C319.141 59.1019 319.283 58.7584 319.537 58.5051C319.79 58.2518 320.134 58.1095 320.493 58.1095H355.882C356.241 58.1095 356.585 58.2518 356.838 58.5051C357.092 58.7584 357.234 59.1019 357.234 59.4601C357.234 59.8183 357.092 60.1618 356.838 60.4151C356.585 60.6684 356.241 60.8107 355.882 60.8107Z" fill="#699DEE"/>
<path d="M338.708 46.1836H319.793C319.007 46.1836 318.37 46.82 318.37 47.6051V48.8713C318.37 49.6564 319.007 50.2928 319.793 50.2928H338.708C339.494 50.2928 340.131 49.6564 340.131 48.8713V47.6051C340.131 46.82 339.494 46.1836 338.708 46.1836Z" fill="#699DEE"/>
<path d="M336.319 223.47H307.483C306.479 223.47 305.665 224.283 305.665 225.286V226.151C305.665 227.154 306.479 227.967 307.483 227.967H336.319C337.323 227.967 338.137 227.154 338.137 226.151V225.286C338.137 224.283 337.323 223.47 336.319 223.47Z" fill="#ED7D2B"/>
<path d="M336.667 239.494H307.128C306.739 239.493 306.366 239.337 306.092 239.062C305.817 238.787 305.662 238.414 305.661 238.026C305.663 237.638 305.818 237.266 306.093 236.991C306.367 236.717 306.74 236.562 307.128 236.56H336.667C337.055 236.562 337.427 236.717 337.702 236.991C337.977 237.266 338.132 237.638 338.134 238.026C338.133 238.414 337.978 238.787 337.703 239.062C337.428 239.337 337.056 239.493 336.667 239.494Z" fill="#ED7D2B"/>
<path d="M323.589 243.492H306.787C306.165 243.492 305.661 243.996 305.661 244.617V245.302C305.661 245.923 306.165 246.426 306.787 246.426H323.589C324.211 246.426 324.715 245.923 324.715 245.302V244.617C324.715 243.996 324.211 243.492 323.589 243.492Z" fill="#ED7D2B"/>
<path d="M357.84 243.492H330.684C329.905 243.492 329.274 244.123 329.274 244.9V245.015C329.274 245.793 329.905 246.423 330.684 246.423H357.84C358.618 246.423 359.249 245.793 359.249 245.015V244.9C359.249 244.123 358.618 243.492 357.84 243.492Z" fill="#ED7D2B"/>
<path d="M383.21 239.494H344.481C344.092 239.493 343.72 239.337 343.445 239.062C343.17 238.787 343.015 238.414 343.014 238.026C343.016 237.638 343.171 237.266 343.446 236.991C343.721 236.717 344.093 236.562 344.481 236.56H383.21C383.599 236.562 383.971 236.717 384.246 236.991C384.52 237.266 384.675 237.638 384.677 238.026C384.676 238.414 384.522 238.787 384.247 239.062C383.972 239.337 383.599 239.493 383.21 239.494Z" fill="#ED7D2B"/>
<path d="M336.667 253.362H307.128C306.739 253.361 306.367 253.206 306.092 252.931C305.817 252.657 305.662 252.285 305.661 251.896C305.662 251.508 305.817 251.136 306.092 250.861C306.367 250.586 306.739 250.432 307.128 250.431H336.667C337.055 250.432 337.428 250.586 337.703 250.861C337.978 251.136 338.133 251.508 338.134 251.896C338.133 252.285 337.978 252.657 337.703 252.931C337.428 253.206 337.055 253.361 336.667 253.362Z" fill="#ED7D2B"/>
<path d="M383.21 253.362H344.481C344.093 253.361 343.72 253.206 343.445 252.931C343.17 252.657 343.015 252.285 343.014 251.896C343.015 251.508 343.17 251.136 343.445 250.861C343.72 250.586 344.093 250.432 344.481 250.431H383.21C383.599 250.432 383.972 250.586 384.247 250.861C384.522 251.136 384.676 251.508 384.677 251.896C384.676 252.285 384.522 252.657 384.247 252.931C383.972 253.206 383.599 253.361 383.21 253.362Z" fill="#ED7D2B"/>
<path d="M336.667 260.587H307.128C306.739 260.587 306.367 260.432 306.092 260.157C305.817 259.883 305.662 259.51 305.661 259.122C305.662 258.734 305.817 258.361 306.092 258.087C306.367 257.812 306.739 257.658 307.128 257.657H336.667C337.055 257.658 337.428 257.812 337.703 258.087C337.978 258.361 338.133 258.734 338.134 259.122C338.133 259.51 337.978 259.883 337.703 260.157C337.428 260.432 337.055 260.587 336.667 260.587Z" fill="#ED7D2B"/>
<path d="M383.21 260.587H344.481C344.093 260.587 343.72 260.432 343.445 260.157C343.17 259.883 343.015 259.51 343.014 259.122C343.015 258.734 343.17 258.361 343.445 258.087C343.72 257.812 344.093 257.658 344.481 257.657H383.21C383.599 257.658 383.972 257.812 384.247 258.087C384.522 258.361 384.676 258.734 384.677 259.122C384.676 259.51 384.522 259.883 384.247 260.157C383.972 260.432 383.599 260.587 383.21 260.587Z" fill="#ED7D2B"/>
<path d="M364.427 223.47H343.717C342.857 223.47 342.159 224.166 342.159 225.026V226.41C342.159 227.27 342.857 227.967 343.717 227.967H364.427C365.288 227.967 365.985 227.27 365.985 226.41V225.026C365.985 224.166 365.288 223.47 364.427 223.47Z" fill="#ED7D2B"/>
<path d="M268 28.9163L265.996 30.3547L263.968 28.9332C264.195 28.6123 264.495 28.3503 264.844 28.1689C265.193 27.9874 265.58 27.8919 265.973 27.8903C266.366 27.8886 266.754 27.9809 267.104 28.1594C267.455 28.3378 267.757 28.5973 267.987 28.9163H268Z" fill="white"/>
<path d="M266.003 24.3884C265.046 24.3884 264.104 24.6185 263.256 25.0593C262.407 25.5001 261.677 26.1386 261.128 26.9208L262.399 27.8122C262.803 27.2352 263.339 26.7636 263.963 26.437C264.587 26.1105 265.281 25.9387 265.985 25.936C266.69 25.9334 267.385 26.1 268.011 26.4218C268.638 26.7436 269.178 27.2112 269.585 27.7852L270.853 26.8769C270.301 26.1067 269.573 25.4791 268.729 25.0463C267.886 24.6136 266.951 24.388 266.003 24.3884Z" fill="white"/>
<path d="M266.003 17.7334C263.979 17.733 261.985 18.2194 260.189 19.1515C258.394 20.0836 256.849 21.434 255.687 23.0885L256.961 23.9799C257.977 22.5364 259.325 21.3572 260.891 20.5411C262.457 19.7249 264.197 19.2955 265.963 19.2889C267.73 19.2823 269.472 19.6986 271.044 20.5031C272.617 21.3075 273.973 22.4766 275 23.9124L276.261 23.0041C275.095 21.3727 273.556 20.0433 271.771 19.1265C269.987 18.2097 268.009 17.732 266.003 17.7334Z" fill="white"/>
<path d="M266.003 21.3732C264.562 21.3728 263.143 21.7172 261.863 22.3775C260.583 23.0378 259.481 23.9948 258.647 25.1683L259.918 26.0597C260.607 25.0956 261.516 24.3089 262.569 23.7647C263.622 23.2204 264.789 22.9341 265.975 22.9295C267.161 22.9249 268.331 23.202 269.388 23.7381C270.445 24.2741 271.36 25.0537 272.056 26.0125L273.317 25.111C272.482 23.9532 271.383 23.0104 270.111 22.3605C268.839 21.7106 267.431 21.3722 266.003 21.3732Z" fill="white"/>
<path d="M254.75 240.973C254.749 243.314 255.391 245.611 256.606 247.613C257.82 249.614 259.562 251.245 261.64 252.326C263.718 253.408 266.054 253.899 268.392 253.747C270.731 253.594 272.983 252.803 274.902 251.461C275.007 251.39 275.109 251.312 275.213 251.238C276.966 249.934 278.355 248.204 279.25 246.212C280.144 244.22 280.513 242.033 280.322 239.858C280.132 237.683 279.387 235.593 278.16 233.787C276.932 231.981 275.262 230.519 273.309 229.539C271.357 228.559 269.185 228.095 267.002 228.19C264.819 228.286 262.696 228.937 260.836 230.083C258.976 231.229 257.44 232.831 256.375 234.738C255.31 236.644 254.751 238.79 254.75 240.973Z" fill="white"/>
<path d="M271.042 249.182L269.863 248.138L269.568 248.192C269.35 248.038 269.125 247.895 268.892 247.764C268.97 247.287 269.034 246.845 269.089 246.453C269.198 245.682 269.265 244.906 269.288 244.127C269.913 244.097 270.336 244.029 270.336 244.029C271.519 243.756 271.576 239.721 271.302 237.614C271.529 237.622 271.754 237.579 271.962 237.489C272.857 237.094 272.908 235.74 272.908 235.74C272.761 236.01 272.537 236.232 272.266 236.378C272.266 236.378 273.763 234.328 272.026 232.927C270.288 231.526 268.527 232.441 267.52 232.502C265.31 232.637 263.88 232.769 263.16 234.22C262.44 235.672 262.727 239.589 264.093 241.038C264.116 241.173 264.14 241.304 264.157 241.439C264.221 241.908 264.408 242.352 264.698 242.726C264.455 244.103 263.895 245.404 263.062 246.528C262.61 246.89 262.213 247.317 261.886 247.794H261.862C261.125 248.908 260.568 250.131 260.209 251.417C260.209 251.417 260.209 251.417 260.209 251.437C260.938 251.949 261.721 252.379 262.545 252.72L262.707 252.788H262.744L263.011 252.892C263.227 252.977 263.444 253.054 263.663 253.125C263.883 253.196 264.127 253.267 264.36 253.328L264.698 253.406C264.792 253.429 264.887 253.45 264.985 253.466H265.026L265.218 253.504L265.671 253.581H265.776L266.026 253.615L266.381 253.656C266.513 253.656 266.648 253.679 266.783 253.686C266.918 253.693 267.037 253.686 267.165 253.706H267.567H268H268.142H268.355H268.338C268.473 253.706 268.605 253.689 268.74 253.676C270.431 253.516 272.072 253.02 273.567 252.217C272.88 251.087 272.029 250.064 271.042 249.182Z" fill="#699DEE"/>
<path d="M380.517 315.351C380.517 317.9 381.273 320.391 382.691 322.51C384.109 324.63 386.124 326.281 388.482 327.256C390.84 328.231 393.434 328.485 395.936 327.987C398.439 327.488 400.737 326.26 402.54 324.457C404.344 322.653 405.571 320.356 406.067 317.856C406.563 315.356 406.306 312.765 405.328 310.411C404.349 308.056 402.694 306.045 400.571 304.631C398.448 303.217 395.953 302.463 393.401 302.466C391.706 302.458 390.026 302.787 388.458 303.431C386.891 304.076 385.467 305.026 384.269 306.224C383.07 307.422 382.122 308.845 381.478 310.412C380.834 311.979 380.507 313.657 380.517 315.351Z" fill="white"/>
<path d="M400.006 322.651C399.989 322.615 399.968 322.582 399.942 322.553C399.884 322.472 399.815 322.4 399.736 322.34C399.541 322.198 399.327 322.085 399.1 322.002H399.073C398.242 321.676 397.372 321.458 396.484 321.354C396.065 321.29 395.734 321.249 395.578 321.232C395.146 320.895 394.564 319.504 394.47 317.387C394.47 317.387 394.953 316.266 395.592 316.617C396.606 317.16 398.516 314.959 397.9 312.065C397.838 311.775 397.759 311.489 397.664 311.208C397.876 311.305 398.106 311.36 398.34 311.37C398.918 311.37 399.793 309.891 399.912 309.394C400.03 308.898 399.912 307.267 399.107 306.784C398.303 306.302 397.106 306.855 397.052 306.876C397.447 306.322 398.799 306.433 399.046 306.46C395.889 305.805 395.237 307.811 395.183 308.01C393.175 306.197 390.113 309.33 389.356 310.168C389.304 310.21 389.253 310.258 389.203 310.309C388.986 310.444 388.794 310.615 388.636 310.816C388.269 311.3 388.085 311.898 388.115 312.504C388.131 313.19 388.266 313.867 388.514 314.506C388.696 316.259 389.19 318.43 390.015 318.494C390.015 318.494 390.302 318.494 390.735 318.46C390.735 318.481 390.735 318.497 390.735 318.518C390.735 318.811 390.758 319.142 390.762 319.473V319.672C390.762 320.554 390.711 321.391 390.511 321.496H390.336C390.255 321.496 390.103 321.519 390.103 321.519C389.399 321.611 388.899 321.681 388.544 321.742C387.841 321.86 387.665 321.945 387.493 322.08C387.45 322.12 387.409 322.163 387.371 322.208C386.385 323.011 385.603 324.036 385.09 325.2C387.313 327.081 390.109 328.155 393.021 328.246C395.934 328.337 398.791 327.441 401.128 325.703C400.852 324.652 400.476 323.63 400.006 322.651Z" fill="#F99746"/>
<path d="M380.516 56.4178C380.512 59.2619 381.454 62.0269 383.193 64.2783C383.751 64.9997 384.383 65.6606 385.079 66.2501C387.321 68.1461 390.144 69.2206 393.081 69.2959C396.017 69.3711 398.891 68.4427 401.228 66.6641C403.564 64.8855 405.222 62.3634 405.928 59.5151C406.634 56.6668 406.346 53.6631 405.11 51.0009C403.875 48.3388 401.767 46.1778 399.134 44.8755C396.502 43.5733 393.503 43.2078 390.635 43.8396C387.766 44.4714 385.2 46.0626 383.36 48.3499C381.52 50.6372 380.517 53.4835 380.516 56.4178Z" fill="white"/>
<path d="M400.006 63.7178C399.988 63.6829 399.967 63.6501 399.942 63.6199C399.884 63.5393 399.814 63.4676 399.736 63.4072C399.54 63.2622 399.326 63.1431 399.1 63.0526H399.073C398.241 62.728 397.371 62.5102 396.484 62.4043C396.065 62.3368 395.734 62.2963 395.578 62.2794C395.44 62.1612 395.325 62.018 395.24 61.8574C394.882 61.2293 394.53 60.0476 394.459 58.437C394.459 58.437 394.943 57.3194 395.581 57.6671C396.596 58.2107 398.505 56.0127 397.89 53.119C397.828 52.8277 397.749 52.5403 397.653 52.258C397.866 52.3558 398.096 52.4108 398.329 52.4201C398.907 52.4201 399.783 50.9412 399.901 50.4482C400.02 49.9552 399.901 48.3176 399.097 47.8348C398.292 47.352 397.096 47.9057 397.042 47.9293C397.437 47.3756 398.793 47.487 399.036 47.5107C395.879 46.8556 395.227 48.8815 395.173 49.0605C393.165 47.2507 390.102 50.3841 389.345 51.218C389.293 51.2608 389.243 51.3081 389.193 51.3599C388.976 51.4954 388.783 51.668 388.625 51.8697C388.262 52.3489 388.077 52.9403 388.105 53.5411C388.12 54.2265 388.255 54.9041 388.504 55.5433C388.686 57.2991 389.18 59.4668 390.004 59.531C390.004 59.531 390.292 59.531 390.724 59.5006C390.724 59.5175 390.724 59.5343 390.724 59.5546C390.724 59.8483 390.748 60.1792 390.751 60.5135V60.7127C390.751 61.594 390.701 62.428 390.501 62.536H390.325L390.092 62.5597C389.389 62.6508 388.889 62.7217 388.534 62.7825C387.831 62.9041 387.655 62.9851 387.483 63.1202L387.361 63.2485C386.374 64.0527 385.593 65.079 385.08 66.2434C385.201 66.347 385.326 66.4483 385.455 66.5473L385.519 66.598C385.614 66.6722 385.708 66.7431 385.806 66.8107C385.904 66.8782 385.942 66.9153 386.012 66.9626C386.083 67.0099 386.154 67.0605 386.225 67.1044C386.296 67.1483 386.432 67.2462 386.54 67.3104L386.756 67.4455L387.027 67.6042L387.331 67.773H387.358H387.375L387.419 67.7966L387.662 67.9215L387.736 67.9587L387.875 68.0262L388.01 68.0904L388.324 68.2288L388.642 68.3571L388.788 68.4145L388.933 68.4685L389.23 68.5732L389.541 68.6745L389.805 68.7555H389.832L390.001 68.8028C390.309 68.8872 390.623 68.9615 390.941 69.0223C391.079 69.0493 391.218 69.0763 391.356 69.0966H391.465H391.502L391.772 69.1303H391.83H391.87C391.955 69.1303 392.039 69.1506 392.12 69.1573H392.164H392.242C392.394 69.1573 392.543 69.181 392.695 69.1877H392.719H392.861H392.948H393.395C396.171 69.1923 398.874 68.2966 401.098 66.6351C400.822 65.6319 400.457 64.6555 400.006 63.7178Z" fill="#F99746"/>
<path d="M555.534 567.976L509.081 592H478.157C470.701 587.006 431.975 560.619 415.963 540.948C412.583 536.778 400.148 500.852 390.613 471.682C391.88 475.555 418.519 532.229 426.104 538.672C433.689 545.114 473.513 582.62 484.512 582.229C495.166 581.864 551.883 568.824 555.399 568.017L555.534 567.976Z" fill="#EFA26F"/>
<path d="M649 592H481.53C489.93 588.708 522.064 576.444 555.375 568.027L555.534 567.99C584.143 560.761 613.594 556.378 629.588 562.952L629.703 563.124L649 592Z" fill="#D2E3FC"/>
<path d="M379.205 371.032C382.024 369.999 385.989 369.317 387.916 372.535C390.917 377.539 379.77 421.69 378.377 427.234L379.205 371.032Z" fill="#EFA26F"/>
<path d="M380.064 347.292L379.107 373.997C379.107 373.997 384.728 374.912 387.922 372.528C391.116 370.144 389.426 346.978 380.064 347.292Z" fill="#FFC197"/>
<path d="M267.561 501.936C251.468 505.234 216.785 492.606 216.785 492.606L222.369 438.63L183.16 483.466C163.218 476.038 132.019 456.704 113.486 444.664C160.983 439.491 196.444 392.666 196.444 392.666C229.369 410.48 266.533 420.886 266.533 420.886C266.543 452.97 267.561 501.936 267.561 501.936Z" fill="#CBE1FD"/>
<path d="M157.133 452.909C157.145 451.62 157.54 450.364 158.267 449.299C158.993 448.234 160.02 447.408 161.217 446.926C162.413 446.444 163.726 446.328 164.989 446.591C166.252 446.854 167.409 447.485 168.312 448.405C169.216 449.325 169.827 450.492 170.066 451.758C170.306 453.025 170.165 454.334 169.66 455.52C169.155 456.706 168.31 457.716 167.23 458.422C166.151 459.128 164.886 459.498 163.596 459.486C162.739 459.479 161.893 459.302 161.104 458.967C160.316 458.632 159.601 458.146 159.001 457.535C158.401 456.924 157.927 456.201 157.607 455.407C157.286 454.614 157.125 453.765 157.133 452.909Z" fill="#F99746"/>
</g>
<defs>
<clipPath id="clip0_25_6">
<rect width="649" height="592" fill="white"/>
</clipPath>
</defs>
</svg>
