<svg width="40" height="41" viewBox="0 0 40 41" fill="none" xmlns="http://www.w3.org/2000/svg">
<g clip-path="url(#clip0_285_163)">
<path d="M20 39.9355C31.0458 39.9355 40.0001 30.9812 40.0001 19.9356C40.0001 8.88993 31.0458 -0.0643311 20 -0.0643311C8.95432 -0.0643311 0 8.88993 0 19.9356C0 30.9812 8.95432 39.9355 20 39.9355Z" fill="white"/>
<path fill-rule="evenodd" clip-rule="evenodd" d="M20.0001 3.84888C28.8846 3.84888 36.087 11.0512 36.087 19.9358C36.087 28.8203 28.8846 36.0227 20.0001 36.0227C11.1156 36.0227 3.91321 28.8203 3.91321 19.9358C3.91321 11.0512 11.1156 3.84888 20.0001 3.84888Z" fill="url(#paint0_linear_285_163)"/>
<path d="M22.0902 35.8876V23.4617H25.5932L26.0576 19.0884H22.0902L22.0961 16.8994C22.0961 15.7587 22.2044 15.1478 23.8428 15.1478H26.033V10.7738H22.5292C18.3204 10.7738 16.8393 12.8952 16.8393 16.4633V19.0888H14.2157V23.4625H16.8393V35.7114C17.8614 35.915 18.918 36.0226 20 36.0226C20.6989 36.0226 21.3971 35.9775 22.0902 35.8876V35.8876Z" fill="white"/>
</g>
<defs>
<linearGradient id="paint0_linear_285_163" x1="20.0001" y1="3.55576" x2="20.0001" y2="37.3946" gradientUnits="userSpaceOnUse">
<stop stop-color="#00B2FF"/>
<stop offset="1" stop-color="#006AFF"/>
</linearGradient>
<clipPath id="clip0_285_163">
<rect width="40" height="40" fill="white" transform="translate(0 0.0333252)"/>
</clipPath>
</defs>
</svg>
