<svg width="45" height="31" viewBox="0 0 45 31" fill="none" xmlns="http://www.w3.org/2000/svg">
<g clip-path="url(#clip0_285_168)">
<path d="M17.0451 30.9272C29.5301 30.9272 36.3577 20.5801 36.3577 11.6074C36.3577 11.3136 36.3517 11.0211 36.3384 10.7298C37.6669 9.76813 38.8135 8.57747 39.7243 7.21361C38.508 7.75452 37.1993 8.11857 35.8263 8.28271C37.2277 7.4421 38.3036 6.11223 38.8112 4.52704C37.4787 5.31775 36.0211 5.87516 34.501 6.17524C33.2624 4.85539 31.499 4.02991 29.5464 4.02991C25.798 4.02991 22.7583 7.07079 22.7583 10.8191C22.7583 11.352 22.818 11.8702 22.9344 12.3674C17.293 12.0834 12.2907 9.38147 8.94284 5.27297C8.33986 6.30921 8.02271 7.48693 8.02376 8.68584C8.02376 11.0416 9.22203 13.1213 11.0443 14.338C9.96642 14.305 8.91217 14.0138 7.97023 13.4887C7.96922 13.5172 7.96922 13.545 7.96922 13.5754C7.96922 16.8638 10.3089 19.6095 13.4147 20.2316C12.8314 20.3905 12.2295 20.4709 11.6249 20.4705C11.1883 20.4705 10.7628 20.4275 10.3492 20.3481C11.2134 23.0461 13.7191 25.0094 16.69 25.0642C14.3668 26.8858 11.4403 27.9708 8.25965 27.9708C7.71857 27.9712 7.17794 27.9398 6.64056 27.8767C9.64459 29.8029 13.2116 30.9268 17.0454 30.9268" fill="#1DA1F2"/>
</g>
<defs>
<clipPath id="clip0_285_168">
<rect width="44.611" height="30.05" fill="white" transform="translate(0 0.877319)"/>
</clipPath>
</defs>
</svg>
