<svg width="32" height="32" viewBox="0 0 32 32" fill="none" xmlns="http://www.w3.org/2000/svg">
<rect width="32" height="32" rx="2" fill="white"/>
<path d="M27 7.00005C26.0424 7.67552 24.9821 8.19216 23.86 8.53005C23.2577 7.83756 22.4573 7.34674 21.567 7.12397C20.6767 6.90121 19.7395 6.95724 18.8821 7.2845C18.0247 7.61176 17.2884 8.19445 16.773 8.95376C16.2575 9.71308 15.9877 10.6124 16 11.53V12.53C14.2426 12.5756 12.5013 12.1859 10.931 11.3955C9.36074 10.6051 8.01032 9.43868 7 8.00005C7 8.00005 3 17 12 21C9.94053 22.398 7.48716 23.099 5 23C14 28 25 23 25 11.5C24.9991 11.2215 24.9723 10.9436 24.92 10.67C25.9406 9.66354 26.6608 8.39276 27 7.00005Z" fill="#1DA1F2"/>
</svg>
